<svg xmlns="http://www.w3.org/2000/svg" version="1.1" xmlns:xlink="http://www.w3.org/1999/xlink" width="1024" height="1024"><svg id="SvgjsSvg1026" data-name="Layer 2" xmlns="http://www.w3.org/2000/svg" viewBox="0 0 1024 1024">
  <defs>
    <style>
      .cls-1 {
        fill: #22c55e;
      }

      .cls-2 {
        fill: #fefefe;
      }

      .cls-3 {
        fill: #15803d;
      }
    </style>
  </defs>
  <g id="SvgjsG1025" data-name="Layer 1 copy">
    <path class="cls-2" d="M1024,0v1024H0V0h1024ZM650,108c-33.78.61-66.73,5.78-99.39,14.07-5.34-19.9-16.87-37.57-36.26-45.93-53.75-23.16-101.03,26.8-82.13,80.13.78,2.2,4.42,7.29,3.35,8.77-93.81,38.93-179.28,92.94-243.55,172.48-101.29,125.35-161.99,332.94-93.2,486.15,46.52,103.6,129.46,132.5,237.72,132.37,145.14-.17,291.02-2.91,435.95-3.14,24.84-.04,62.97,7.01,81.48-14.43,18.61-21.56,12.96-73.54,12.98-100.93.02-25.67,1.8-54.88.08-80.08-1.25-18.37-7.95-31.92-26.99-36.01-41.19-8.84-60.63,37.58-69.06,69.55-17.11-9-34.47-18.16-52.74-24.75-14.79-5.33-31.84-10.33-47.25-13.25l1.01-15c25.01,9.91,48.82,22.98,75.97,11.48,28.47-12.06,38.94-49.85,22.84-75.8-6.92-11.16-21.33-20.49-30.34-30.66-21.14-23.87-36.72-60.37-44.98-91.02-1.37-5.07-4.27-14.2-4.5-19-.63-13.13,18.89-56.57,25.83-69.67,19.31-36.47,42.27-59.39,81.65-73.35,39.13-13.86,83.98-12.26,116.52-40.98,4.77-4.21,6.31-6.28,10-11,15.41-19.68,18.61-35.58,22-60,1.64-11.82,6.34-42.19.46-51.96-1.52-2.52-5.47-5.63-8.46-6.04-5.44-3.65-13.34-4.45-19.81-5.69-22.86-4.37-46.65-5.3-69.21-9.79-40.29-8.02-32.78-25.79-55.94-49.06-8-8.04-29.94-22.75-40.04-27.46,4.04-64.48-83.22-80.17-104-20Z"></path>
    <path class="cls-1" d="M550.05,121.97c32.62-7.32,65.61-14.07,99.28-13.94,23-60.4,108.17-44.63,105.16,20.97,19.3,10.14,37.05,21.19,49.74,39.26,7.25,10.33,10.65,20.57,22.04,27.96,17.28,11.2,53.1,11.7,74.07,14.93,11.73,1.81,43.47,4.74,48.18,16.82,4.35,11.15-.44,49.97-2.98,63.05-21.22,109.17-124.91,68.21-190,122-24.74,20.44-42.99,55.03-54.28,84.72-2.75,7.25-9.62,25.02-10.17,31.88-.66,8.19,5.89,27.6,8.65,36.13,8.64,26.68,22.1,56.18,40.75,77.25,9.01,10.18,23.42,19.51,30.34,30.66,16.1,25.96,5.63,63.74-22.84,75.8-27.15,11.5-50.96-1.58-75.97-11.48-1.26,5.23-1.15,10.59-.96,15.95,35.48,5.67,68.77,19.79,99.94,37.04,8.79-33.95,30.07-81.94,73.79-68.28,15.91,4.97,21.21,19.33,22.26,34.74,1.72,25.21-.06,54.41-.08,80.08-.03,27.39,5.63,79.37-12.98,100.93-18.51,21.44-56.63,14.39-81.48,14.43-144.6.23-290.15,3.02-434.96,3.13-112.93.09-196.42-30.65-242.01-140.07-65.71-157.73.3-366.34,106.95-490.98,62.47-73.01,145.11-123.07,233.1-159.94,1.06-1.48-2.57-6.57-3.35-8.77-18.48-52.17,26.6-102.06,80.04-81.04,19.85,7.81,33.57,25.99,37.78,46.74Z"></path>
    <path class="cls-3" d="M671,753c-4.51-.86-17.56-3.02-21.51-2.99-4.48.04-11.94,3.17-17.12,3.87-22.66,3.06-41.37-3.4-62.84-4.92-39.49-2.78-82.62,2.91-122.08.09-8.61-.62-6.27-4.16.51-5.59l54.03-7.45c-32.56-17.89-61.86-45.04-75.99-80.01,2.21-.53,2.21,1.28,3.19,2.3,23.92,24.78,38.28,42.7,69.5,60.5,41.2,23.48,157.69,62.02,176.8-3.79,10.95-37.7-20.95-54.66-40.9-80.11-29.67-37.85-45.48-82.98-49.6-130.89,2.61-.49,1.76.5,2.45,1.99,7.38,15.8,11.9,36.54,19.37,53.68,15.8,36.26,37.24,67.96,64.69,96.32,2.34.42,1.31-1.05,1.46-2.51,3.74-35.63,5.99-68.3,13.34-103.68,1.12-5.37,1.98-12.24,4.69-16.81.23,4.8,3.14,13.93,4.5,19,8.26,30.65,23.84,67.14,44.98,91.02,9.01,10.18,23.42,19.51,30.34,30.66,16.1,25.95,5.63,63.74-22.84,75.8-27.15,11.5-50.96-1.57-75.97-11.48l-1.01,15Z"></path>
    <path class="cls-3" d="M754,128c-32.56-15.19-68.08-20.65-104-20,20.78-60.17,108.04-44.48,104,20Z"></path>
    <path class="cls-3" d="M939,220c2.99.41,6.94,3.52,8.46,6.04,5.88,9.77,1.18,40.14-.46,51.96-13.45.44-25.53.88-36.48-8.02-16.16-13.14-18.46-46.91,7.08-49.87,4.91-.57,16.63-.76,21.39-.11Z"></path>
    <path class="cls-3" d="M925,338c-3.69,4.72-5.23,6.79-10,11-18.34,1.07-35.48-1.26-51.88-9.62-4.18-2.13-12.26-5.75-12.15-10.88.28-12.78,17.96,1.63,24.05,3.98,16.17,6.24,32.92,5.77,49.98,5.52Z"></path>
    <path class="cls-3" d="M482.74,105.24c15.54-2.64,29.51,4.94,37.46,18.07,2.32,3.84,7.6,13.16,3.2,16.59l-43.67,22.32c-5.88,1.79-7.42,1.23-11.13-3.31-13.68-16.71-9.97-49.58,14.15-53.67Z"></path>
    <path class="cls-3" d="M729.25,170.47c51.6-10.56,56.05,60.44,12.3,65.4-39.78,4.52-46.12-58.48-12.3-65.4Z"></path>
  </g>
</svg><style>@media (prefers-color-scheme: light) { :root { filter: none; } }
@media (prefers-color-scheme: dark) { :root { filter: none; } }
</style></svg>