<?xml version="1.0" encoding="UTF-8"?>
<svg id="Layer_2" data-name="Layer 2" xmlns="http://www.w3.org/2000/svg" viewBox="0 0 1364.13 1291.2">
  <defs>
    <style>
      .cls-1 {
        fill: #cfd7df;
      }

      .cls-2 {
        fill: #aeb4bf;
      }

      .cls-3 {
        fill: #323e4f;
      }

      .cls-4 {
        fill: #54667a;
      }

      .cls-5 {
        opacity: .99;
      }
    </style>
  </defs>
  <g id="Layer_1-2" data-name="Layer 1">
    <g class="cls-5">
      <g>
        <path class="cls-1" d="M986.41,248.02c-65.84-55.26-161-44.5-209.75,28.85-29.5,44.39-37.81,90.61-85.63,127.5-27.81,21.45-59.27,34.59-93.53,42.37-64.77,14.71-120.9,27-163.4,81.62-34.68,44.57-51.28,103.13-41.42,159.67-1.44,1.24-2.16,3.27-1.97,6.11,2.92,43.83,12.96,85.1,26.96,126.62,9.85,29.22,19.4,56.71,25.17,87.03,8.03,42.19,8.51,84.4-4.99,125.58-22.03,67.17-72.68,121.6-136.94,148.46-42.92-25.32-84.08-51.47-122.57-85.65C107.2,1032.99,45.12,961.05,0,876.19c7.09-74.12,40.42-161.89,71.59-229.6,48.27-104.87,109.3-201.85,181.65-291.4,20.2-25,26.9-51.91,13.74-81.53-20.66-46.48-46.84-99.67-36.74-151.32,8.97-45.88,41.96-77.92,86.3-88.49,41.78-9.96,82.64-1.07,114.96,27.37,24.41,21.48,41.21,46.85,62.95,71.57,16.69,18.98,48.04,27.59,73.34,23.78,99.64-15.03,198.63-10.2,295.93,16.15,43.82,11.87,83.49,32.63,115.38,64.65,3.41,3.42,6.69,6.68,7.33,10.66ZM345.51,225.5c25.04-17.09,48.85-32.05,74.93-46.19,16.05-8.7,21.27-29.79,12.02-45.92s-20.27-29.48-32.84-42.14c-31.63-31.85-72.43-18.63-103.02,6.96-37.91,31.71-20.9,78.79-1.9,115.65,9.99,19.37,32.28,24.29,50.82,11.64Z"/>
        <path class="cls-4" d="M912.17,126c-73.47-17.36-148-27.14-223.55-28,5.43-14.26,10.17-28.44,17.73-42.77,32.27-61.19,97.54-67.84,155.26-38.01,27.76,14.35,41.75,41.93,49.8,71.53l3.06,11.26c-2.38,8.94-3.17,17.58-2.3,25.99Z"/>
        <path class="cls-3" d="M345.51,225.5c-18.53,12.65-40.83,7.73-50.82-11.64-19-36.86-36.01-83.94,1.9-115.65,30.59-25.59,71.39-38.81,103.02-6.96,12.57,12.66,23.94,26.62,32.84,42.14s4.03,37.22-12.02,45.92c-26.07,14.14-49.88,29.1-74.93,46.19Z"/>
        <g>
          <path class="cls-2" d="M986.41,248.02c6.1,5.12,11.38,10.83,17.46,17.25,35.76,37.75,79.33,65.23,129.42,79.97l77.38,22.77c-.08,20.1,4.42,38.88,15.57,56.93,15.67,25.35,34.52,48.43,56.98,67.96,17.46,15.19,40.72,12.97,58.72-.5-8.15,37.16-22.9,73.9-43.36,105.75-55.5,13.89-112.05,7.45-160.45-25.39-6.31-4.28-14.09-4.55-18.49-.02-4.65,4.79-5.22,15.27,1,19.4,50.25,33.4,98.84,43.32,157.78,35.98-6.77,15.46-20.67,26.04-34.7,37.3-45.26,36.33-102.08,41.22-158.98,48.66-20.43,2.67-39.06,7.68-58.15,11.67-3.72-3.98-9.3-1.29-15.02-.48l-264.31,37.6c-36.32,5.17-70.14,9.55-106.7,7.03-53.64-3.69-103.79-21.16-145.12-54.92-54.79-44.75-88.35-118.87-61.33-186.62,42.5-54.62,98.63-66.91,163.4-81.62,34.25-7.78,65.72-20.92,93.53-42.37,47.82-36.89,56.13-83.11,85.63-127.5,48.74-73.35,143.91-84.11,209.75-28.85ZM935.31,342.07c12.15-6.57,59.61-39.08,36.89-52.21-17.59-10.17-20.49,21.85-59.88,34.4-26.6,8.48-53.51.43-74.88-17.03-6.52-5.33-15.42-7.36-20.95-.52-4.3,5.3-3.83,13.75,2.57,18.94,33.51,27.16,76.47,37.92,116.25,16.42Z"/>
          <path class="cls-2" d="M842.59,1214.02c3.27,10.93,5.3,23.87,2.22,34.35l-6.23,21.17c-178.3,51.52-377.59,6.73-537.65-87.7,64.25-26.86,114.91-81.29,136.94-148.46,13.51-41.18,13.02-83.39,4.99-125.58-5.77-30.32-15.32-57.81-25.17-87.03-13.99-41.51-24.04-82.78-26.96-126.62-.19-2.84.53-4.87,1.97-6.11,6.84,39.22,22.34,76.07,43.5,110.51,38.2,62.17,108.58,128.41,165.05,174.91l136.97,112.79c24.98,20.57,47.33,41.56,67.78,66.37,32.17,39.04,33.12,60.4,32.96,60.16.68,1,1.97,1.65,3.64,1.23Z"/>
          <path class="cls-3" d="M1248.68,323.56c14.33-1.12,55.99,9.99,70.3,14.59,33.85,10.88,48.87,46.11,44.37,77.15-1.97,13.62-13.21,70.98-21.41,77.11-18,13.47-41.26,15.68-58.72.5-22.46-19.54-41.31-42.61-56.98-67.96-11.16-18.05-15.65-36.83-15.57-56.93,6.83-23.66,13.39-38.41,38.01-44.45ZM1333.81,374.63c3.17-25.5-78.31-39.74-82.3-16.77-4.09,23.54,79.24,41.38,82.3,16.77Z"/>
          <path class="cls-4" d="M1026.59,725.75c-43.17,9.02-86.14,23.7-124.18,48.01-3.78,2.41-6.91,4.56-10.83,6.98-87.07,53.8-129.33,156.46-107.87,256.07,14.1,65.44,40.82,116.92,58.88,177.21-1.67.41-2.96-.24-3.64-1.23.16.24-.78-21.12-32.96-60.16-20.45-24.81-42.8-45.8-67.78-66.37l-136.97-112.79c-56.47-46.5-126.85-112.74-165.05-174.91-21.16-34.44-36.66-71.29-43.5-110.51-9.86-56.53,6.74-115.09,41.42-159.67-27.02,67.75,6.54,141.86,61.33,186.62,41.33,33.76,91.48,51.23,145.12,54.92,36.55,2.51,70.38-1.87,106.7-7.03l264.31-37.6c5.72-.81,11.3-3.5,15.02.48Z"/>
          <path class="cls-3" d="M1298.58,598.15c-6.38,9.93-9.44,23.46-20.16,29.97-58.94,7.34-107.54-2.58-157.78-35.98-6.22-4.13-5.65-14.61-1-19.4,4.4-4.53,12.18-4.26,18.49.02,48.41,32.84,104.95,39.28,160.45,25.39Z"/>
          <path class="cls-3" d="M935.31,342.07c-39.78,21.51-82.74,10.74-116.25-16.42-6.4-5.19-6.86-13.64-2.57-18.94,5.54-6.84,14.43-4.81,20.95.52,21.37,17.46,48.28,25.51,74.88,17.03,39.39-12.56,42.28-44.57,59.88-34.4,22.72,13.13-24.74,45.64-36.89,52.21Z"/>
          <path class="cls-4" d="M1333.81,374.63c-3.06,24.6-86.39,6.76-82.3-16.77,3.99-22.97,85.47-8.73,82.3,16.77Z"/>
        </g>
      </g>
    </g>
  </g>
</svg>